<?xml version="1.0"?>
<svg xmlns="http://www.w3.org/2000/svg" id="Layer_1" enable-background="new 0 0 512 512" height="512px" viewBox="0 0 512 512" width="512px" class="hovered-paths"><g><g><path d="m256.081 10c-99.41 0-180 80.59-180 180 0 110 180 312 180 312s180-202 180-312c0-99.41-80.59-180-180-180zm0 310c-71.8 0-130-58.2-130-130s58.2-130 130-130 130 58.2 130 130-58.2 130-130 130z" fill="#ffee80" data-original="#FFEE80" class="hovered-path" style="fill:#FF00FF" data-old_color="#ffee80"/><g><path d="m428.884 110.76c-4.962-10.8-10.985-21.2-17.908-30.91-6.863-9.62-14.666-18.66-23.2-26.86-8.544-8.21-17.897-15.65-27.802-22.12-10.004-6.54-20.659-12.15-31.683-16.68-22.919-9.41-47.22-14.19-72.21-14.19-25.661 0-50.552 5.03-73.991 14.93-11.255 4.76-22.12 10.66-32.284 17.52-10.064 6.8-19.528 14.6-28.132 23.2s-16.407 18.06-23.21 28.12c-6.863 10.16-12.755 21.02-17.527 32.27-9.905 23.43-14.937 48.31-14.937 73.96.04 14.27 2.791 30.39 8.173 47.92 4.822 15.72 11.685 32.61 20.989 51.64 11.775 23.98 27.161 50.4 45.739 78.53 14.767 22.37 31.674 46.01 50.262 70.28 17.293 22.565 32.607 41.193 43.101 53.63h-60.218c-5.525 0-10.004 4.477-10.004 10s4.479 10 10.004 10h164.07c5.525 0 10.004-4.477 10.004-10s-4.479-10-10.004-10h-60.216c11.511-13.638 28.811-34.713 48.14-60.24 19.948-26.38 37.796-51.84 53.033-75.68 19.208-30.05 34.544-57.95 45.589-82.93 2.221-5.04-.07-10.96-5.112-13.18-1.291-.57-2.641-.86-4.042-.86-3.962 0-7.553 2.34-9.154 5.97-24.02 54.47-65.618 114.14-96.271 154.61-17.438 23.021-33.234 42.38-43.418 54.57-3.592 4.3-7.153 8.51-10.585 12.5-14.986-17.45-53.683-63.72-90.198-117.34-23.71-34.79-42.478-66.74-55.794-94.97-15.817-33.4-24.15-62.61-24.08-84.45 0-45.39 17.697-88.08 49.811-120.21 32.134-32.1 74.842-49.79 120.262-49.79h.02c91.419 0 166.05 71.46 169.902 162.69.22 5.38 4.612 9.58 9.985 9.58.14 0 .29 0 .43-.01 2.671-.11 5.132-1.25 6.943-3.22s2.741-4.52 2.632-7.19c-1.052-24.77-6.805-48.69-17.109-71.09z" data-original="#000000" class="active-path" style="fill:#000000"/><ellipse cx="430.769" cy="226.78" rx="10.004" ry="10" data-original="#000000" class="active-path" style="fill:#000000"/><path d="m256.081 50c-77.353 0-140.059 62.68-140.059 140s62.707 140 140.059 140 140.059-62.68 140.059-140-62.707-140-140.059-140zm0 260c-66.302 0-120.051-53.726-120.051-120s53.748-120 120.051-120 120.051 53.726 120.051 120-53.749 120-120.051 120z" data-original="#000000" class="active-path" style="fill:#000000"/><path d="m318.717 145h-.08c-5.762 0-11.365 1.24-16.657 3.68-5.052 2.33-9.554 5.64-13.366 9.82-7.753 8.45-12.025 19.64-12.025 31.5s4.272 23.05 12.025 31.5c3.812 4.18 8.314 7.49 13.375 9.82 5.283 2.44 10.998 3.68 16.761 3.68 4.652 0 9.35-.88 13.602-2.62 4.132-1.69 7.804-4.1 10.905-7.16 3.952-3.84 4.042-10.19.2-14.14-1.901-1.95-4.452-3.03-7.173-3.03-2.621 0-5.092 1.01-6.973 2.83-3.011 2.83-6.193 4.06-10.634 4.12-5.792-.01-11.085-2.43-15.306-7.01-4.372-4.76-6.773-11.15-6.773-17.99s2.401-13.23 6.773-17.99c4.222-4.58 9.514-7 15.306-7.01 4.332.01 8.363 1.36 11.995 4.03 1.74 1.27 3.791 1.95 5.932 1.95 3.171 0 6.183-1.52 8.063-4.07 3.271-4.44 2.321-10.71-2.121-13.98-3.391-2.51-7.133-4.47-11.104-5.82-4.121-1.4-8.403-2.11-12.725-2.11z" data-original="#000000" class="active-path" style="fill:#000000"/><path d="m258.361 145.92c-.911-.26-1.851-.4-2.781-.4-4.432 0-8.384 2.98-9.614 7.23l-10.344 35.78-10.194-36.24c-.6-2.11-1.831-3.92-3.571-5.25-1.731-1.32-3.812-2.03-6.003-2.04h-.06c-2.181 0-4.252.69-5.993 1.99-1.74 1.3-2.991 3.1-3.602 5.19l-10.804 36.76-10.225-36.06c-1.21-4.28-5.172-7.27-9.624-7.27-.911 0-1.831.12-2.731.38-5.303 1.5-8.394 7.04-6.893 12.34l19.669 69.4c.6 2.11 1.83 3.92 3.571 5.24 1.731 1.32 3.812 2.02 6.003 2.03h.05c4.482 0 8.334-2.89 9.604-7.18l10.765-36.64 10.274 36.53c1.21 4.28 5.152 7.27 9.604 7.29h.03c2.191 0 4.272-.69 6.012-2.01 1.751-1.31 2.992-3.11 3.602-5.21l20.089-69.48c.74-2.56.44-5.26-.85-7.6-1.292-2.34-3.422-4.04-5.984-4.78z" data-original="#000000" class="active-path" style="fill:#000000"/></g></g></g> </svg>
